<?xml version="1.0" encoding="UTF-8"?>
<svg width="1200pt" height="1200pt" version="1.1" viewBox="0 0 1200 1200" xmlns="http://www.w3.org/2000/svg">
 <g fill="#e2793b">
  <path d="m85.199 376.8c-13.199 0-24 10.801-24 24s10.801 24 24 24c349.2 0 632.4 283.2 632.4 632.4 0 13.199 10.801 24 24 24 13.199 0 24-10.801 24-24 1.2031-374.4-304.8-680.4-680.4-680.4z"/>
  <path d="m85.199 585.6c-13.199 0-24 10.801-24 24 0 13.199 10.801 24 24 24 234 0 423.6 189.6 423.6 423.6 0 13.199 10.801 24 24 24s24-10.801 24-24c1.1992-259.2-211.2-471.6-471.6-471.6z"/>
  <path d="m85.199 794.4c-13.199 0-24 10.801-24 24 0 13.199 10.801 24 24 24 118.8 0 214.8 96 214.8 214.8 0 13.199 10.801 24 24 24s24-10.801 24-24c1.1992-144-117.6-262.8-262.8-262.8z"/>
  <path d="m85.199 1003.2c-30 0-55.199 25.199-55.199 55.199s25.199 55.199 55.199 55.199 55.199-25.199 55.199-55.199-25.199-55.199-55.199-55.199z"/>
  <path d="m1146 86.398h-1060.8c-13.199 0-24 10.801-24 24v108c0 13.199 10.801 24 24 24s24-10.801 24-24v-84h1011.6v898.8h-195.6c-13.199 0-24 10.801-24 24s10.801 24 24 24h220.8c13.199 0 24-10.801 24-24v-948c0-12-10.801-22.801-24-22.801z"/>
 </g>
</svg>
