<?xml version="1.0" encoding="UTF-8"?>
<svg width="1200pt" height="1200pt" version="1.1" viewBox="0 0 1200 1200" xmlns="http://www.w3.org/2000/svg">
 <g fill="#e2793b">
  <path d="m1026.6 178.59-5.1562-5.25c-38.203-37.742-81.27-70.215-128.06-96.562-101.98-57.414-218.57-83.648-335.32-75.449s-228.53 50.469-321.49 121.57c-54.078 41.309-100.8 91.453-138.19 148.31-75.352 114.67-109.02 251.75-95.367 388.29 13.652 136.54 73.797 264.23 170.37 361.71 0.75 0.9375 4.125 4.2188 5.1562 5.1562 51.68 51.082 112.19 92.371 178.59 121.88 79.566 35.277 165.86 52.797 252.88 51.34 87.023-1.457 172.68-21.855 251.02-59.777 131.53-63.84 235.36-173.33 292.12-308.06 58.324-138.78 62.176-294.45 10.781-435.94-9.7891-26.887-21.477-53.047-34.969-78.281-27.543-51.012-62.273-97.801-103.12-138.94zm-718.78-59.062c79.594 44.438 141.75 84.375 158.81 101.16 29.344 29.625 60.75 77.812 60.656 102.38s-1.125 65.625-1.7812 89.25l-56.719-9.1875c-18.75-29.625-46.875-71.625-86.438-133.31l-21.844-33.75c-3.6523-5.625-10.027-8.8789-16.727-8.5312-6.6953 0.34766-12.699 4.2461-15.75 10.219-3.0469 5.9766-2.6758 13.125 0.97656 18.75l21.938 33.656c125.72 193.88 125.72 193.88 141.75 219.38 22.312 35.438 9.8438 60-4.5938 74.25-7.2578 7.125-17.648 10.059-27.562 7.7812-15.461-3.6914-29.465-11.918-40.219-23.625-4.1289-4.6133-7.8633-9.5703-11.156-14.812-7.125-10.406-17.906-26.062-40.781-54.469-8.1562-10.125-15.844-19.406-23.156-28.125-1.3555-3.1133-3.5664-5.7773-6.375-7.6875-28.125-33.469-49.594-56.812-63.844-72.281-4.875-5.3438-8.8125-9.375-11.625-12.844-13.219-14.906-32.906-18.75-53.812-23.25-28.125-5.8125-60.656-12.469-90.469-46.031 46.98-77.086 111.68-141.85 188.72-188.91zm-136.31 264.84c10.969 3.1875 21.281 5.3438 30.562 7.2188l2.7188 0.5625c-4.5 28.125-11.719 90.469 3.75 110.06 3.8438 4.7812 9.375 13.5 15.281 22.875 7.125 11.156 14.812 23.344 22.688 33.844-2.3984 6.3594-7.3164 11.449-13.594 14.062-5.0234 2.6758-10.875 3.332-16.367 1.832-5.4883-1.5-10.199-5.0391-13.164-9.8945-12.562-18.75-53.906-103.12-54.844-118.69 0-9 10.875-37.5 22.969-61.875zm103.12 149.34c-6.4688-9.375-13.219-19.5-18.75-28.688s-12-18.75-16.875-25.312c-3.8438-9.9375-1.5-47.906 1.3125-71.531l7.5 8.1562c13.125 14.25 32.531 35.344 57.469 64.875zm-174.56-190.97c10.883 10.738 23.223 19.891 36.656 27.188-9.375 20.531-25.594 56.906-25.688 75.844 0 28.969 52.875 127.03 61.125 139.5 10.766 17 29.469 27.324 49.594 27.375 2.4023 0.14062 4.8164 0.14062 7.2188 0l-37.5 64.688c-0.57031 0.9375-1.0117 1.9453-1.3125 3-0.27734 0.82031-0.46484 1.6719-0.5625 2.5312v1.0312c-0.046875 0.75-0.046875 1.5 0 2.25v1.4062c-0.042969 0.65625-0.042969 1.3125 0 1.9688-0.035156 0.53125-0.035156 1.0625 0 1.5938 0.12891 0.55078 0.32031 1.082 0.5625 1.5938 0.16016 0.61328 0.38281 1.2109 0.65625 1.7812l0.84375 1.4062 1.0312 1.6875 1.5 1.5938 1.0312 1.125c0.95312 0.85156 1.9883 1.6094 3.0938 2.25l127.31 73.688c2.8242 1.7188 6.0664 2.6289 9.375 2.625 5.5742 0.039062 10.879-2.4062 14.469-6.668 3.5938-4.2656 5.1016-9.9062 4.1172-15.395-0.98438-5.4883-4.3594-10.25-9.2109-13l-111-64.312 97.125-167.91 8.625 10.688c22.031 27.281 32.25 42.281 39.094 52.125 4.5156 7.125 9.7305 13.781 15.562 19.875 16.156 17.234 37.242 29.059 60.375 33.844 4.3984 0.74219 8.8516 1.1172 13.312 1.125 17.5 0.25 34.375-6.5 46.875-18.75 11.594-10.898 20.02-24.73 24.375-40.035 4.3594-15.305 4.4883-31.5 0.375-46.871l22.5 12.656c5.8438 3.3477 13.031 3.3281 18.855-0.0625 5.8242-3.3867 9.3945-9.6211 9.375-16.359-0.023438-6.7344-3.6367-12.949-9.4805-16.297l-73.125-41.156-10.969-16.969 138.19 23.344c1.0273 0.09375 2.0664 0.09375 3.0938 0 6.6992 0.55078 13.184-2.5117 17.012-8.0352 3.8281-5.5234 4.418-12.672 1.5469-18.75s-8.7656-10.164-15.465-10.715l-78.094-12.75c0.5625-22.688 1.7812-69.375 1.875-95.25 0-44.812-46.875-103.97-71.531-129s-98.625-68.812-146.53-96.094c102.78-52.09 219.1-71.27 333.16-54.934 114.06 16.34 220.32 67.402 304.34 146.25l-794.34 794.91c-79.355-84.535-130.57-191.58-146.58-306.42-16.016-114.84 3.9453-231.81 57.145-334.83zm499.97 819.75c-142.8 0.15625-280.29-54.199-384.38-151.97l794.91-794.91c100.46 107.34 154.91 249.75 151.68 396.73-3.2305 146.98-63.875 286.86-168.95 389.69-105.08 102.82-246.24 160.42-393.26 160.46z"/>
  <path d="m1065.5 514.41c-2.8398-4.1523-7.2344-6.9922-12.188-7.875l-227.34-40.312c-6.5977-1.1719-13.32 1.2656-17.637 6.3945-4.3125 5.125-5.5625 12.168-3.2812 18.469 2.2852 6.2969 7.7578 10.902 14.355 12.074l208.5 36.938-58.312 291.56-77.062-12.844 49.969-89.906c2.5195-4.3555 3.1836-9.5352 1.8438-14.383-1.3398-4.8516-4.5703-8.957-8.9688-11.398l-212.72-119.44c-5.8281-3.3477-13-3.3359-18.816 0.039062-5.8125 3.3711-9.3867 9.5898-9.375 16.312 0.015625 6.7188 3.6133 12.926 9.4414 16.273l196.88 110.62-142.88 256.69-282.09-163.59c-5.7695-3.0195-12.691-2.8281-18.285 0.50391-5.5938 3.332-9.0586 9.3281-9.1523 15.836-0.097656 6.5117 3.1914 12.605 8.6875 16.098l298.5 173.16c2.8477 1.6523 6.082 2.5273 9.375 2.5312 1.6758-0.039062 3.3398-0.26172 4.9688-0.65625 4.9023-1.4492 9-4.8359 11.344-9.375l91.781-164.91 108.28 18.656c1.0273 0.09375 2.0664 0.09375 3.0938 0 4.3984 0.085938 8.6875-1.3828 12.117-4.1406 3.4258-2.7578 5.7773-6.6367 6.6328-10.953l65.625-328.12c0.87891-5-0.30469-10.141-3.2812-14.25z"/>
 </g>
</svg>
