<?xml version="1.0" encoding="UTF-8"?>
<svg width="1200pt" height="1200pt" version="1.1" viewBox="0 0 1200 1200" xmlns="http://www.w3.org/2000/svg">
 <g fill="#e2793b">
  <path d="m798.05 548.91c-27.891 0-50.391 22.5-50.391 50.391v0.46875l-48.516 44.531c-20.859-18.281-52.734-16.172-71.016 4.9219-11.719 13.359-15.469 31.875-10.078 48.516l-44.297 37.5c-17.109-21.797-48.75-25.781-70.547-8.6719-2.1094 1.6406-4.2188 3.5156-6.0938 5.625l-45.469-31.641c5.1562-27.422-12.891-53.906-40.547-59.062-27.422-5.1562-53.906 12.891-59.062 40.547-5.1562 27.422 12.891 53.906 40.547 59.062 16.875 3.2812 34.453-2.5781 46.172-15.234l45.469 31.641c-4.9219 27.422 13.359 53.672 40.781 58.359 27.422 4.9219 53.672-13.359 58.359-40.781 0.46875-2.8125 0.70312-5.8594 0.70312-8.6719 0-1.1719 0-2.3438-0.23438-3.2812l49.453-41.719c21.328 17.812 53.203 15 71.016-6.5625 10.781-12.891 14.297-30.234 9.6094-46.406l42.891-39.141c16.406 22.5 48.047 27.422 70.547 11.016s27.422-48.047 11.016-70.547c-9.1406-13.125-24.141-20.859-40.312-20.859zm-396.09 164.77c-12.422 0-22.266-10.078-22.266-22.266 0-12.422 10.078-22.266 22.266-22.266 12.422 0 22.266 10.078 22.266 22.266 0.23438 12.188-9.8438 22.266-22.266 22.266zm131.95 75c-12.422 0-22.266-10.078-22.266-22.266s10.078-22.266 22.266-22.266c12.422 0 22.266 10.078 22.266 22.266 0.23438 12.188-9.8438 22.266-22.266 22.266zm154.45-106.41c0 12.422-10.078 22.266-22.266 22.266-12.422 0-22.266-10.078-22.266-22.266 0-12.422 10.078-22.266 22.266-22.266s22.266 9.8438 22.266 22.266zm109.69-60.469c-12.422 0-22.266-10.078-22.266-22.266 0-12.422 10.078-22.266 22.266-22.266s22.266 10.078 22.266 22.266-10.078 22.266-22.266 22.266z"/>
  <path d="m830.16 682.97h-64.453c-7.7344 0-14.062 6.3281-14.062 14.062v272.81c0 7.7344 6.3281 14.062 14.062 14.062h64.453c7.7344 0 14.062-6.3281 14.062-14.062v-272.81c0-7.7344-6.3281-14.062-14.062-14.062zm-14.062 272.81h-36.328v-244.69h36.328z"/>
  <path d="m698.2 765.47h-64.453c-7.7344 0-14.062 6.3281-14.062 14.062v190.31c0 7.7344 6.3281 14.062 14.062 14.062h64.453c7.7344 0 14.062-6.3281 14.062-14.062v-190.31c0-7.7344-6.3281-14.062-14.062-14.062zm-14.062 190.31h-36.328v-162.19h36.328z"/>
  <path d="m566.25 850.31h-64.453c-7.7344 0-14.062 6.3281-14.062 14.062v105.47c0 7.7344 6.3281 14.062 14.062 14.062h64.453c7.7344 0 14.062-6.3281 14.062-14.062v-105.47c0-7.7344-6.3281-14.062-14.062-14.062zm-14.062 105.47h-36.328v-77.344h36.328z"/>
  <path d="m434.3 775.55h-64.453c-7.7344 0-14.062 6.3281-14.062 14.062v180.23c0 7.7344 6.3281 14.062 14.062 14.062h64.453c7.7344 0 14.062-6.3281 14.062-14.062v-180.23c0-7.7344-6.3281-14.062-14.062-14.062zm-14.062 180.23h-36.328v-152.11h36.328z"/>
  <path d="m940.55 140.16h-85.312v-32.344c0-7.7344-6.3281-14.062-14.062-14.062h-457.03c-7.7344 0-14.062 6.3281-14.062 14.062v32.344h-110.62c-35.625 0-64.453 28.828-64.453 64.453v836.95c0 35.625 28.828 64.453 64.453 64.453h680.86c35.625 0 64.453-28.828 64.453-64.453v-836.95c0.23438-35.391-28.594-64.453-64.219-64.453zm-542.34-18.281h428.67v58.594h-428.67zm578.67 919.92c0 20.156-16.406 36.328-36.328 36.328h-681.09c-20.156 0-36.328-16.406-36.328-36.328v-837.19c0-20.156 16.406-36.328 36.328-36.328h110.62v26.25c0 7.7344 6.3281 14.062 14.062 14.062h456.8c7.7344 0 14.062-6.3281 14.062-14.062v-26.25h85.312c20.156 0 36.328 16.406 36.328 36.328v837.19z"/>
  <path d="m333.75 490.08h229.92c7.7344 0 14.062-6.3281 14.062-14.062v-126.09c0-7.7344-6.3281-14.062-14.062-14.062h-229.92c-7.7344 0-14.062 6.3281-14.062 14.062v126.09c0 7.7344 6.3281 14.062 14.062 14.062zm14.062-126.09h201.8v97.969h-201.8z"/>
  <path d="m866.25 461.95h-9.8438c-7.7344 0-14.062 6.3281-14.062 14.062s6.3281 14.062 14.062 14.062h9.8438c7.7344 0 14.062-6.3281 14.062-14.062s-6.3281-14.062-14.062-14.062z"/>
  <path d="m684.14 490.08h107.34c7.7344 0 14.062-6.3281 14.062-14.062s-6.3281-14.062-14.062-14.062h-107.34c-7.7344 0-14.062 6.3281-14.062 14.062s6.0938 14.062 14.062 14.062z"/>
  <path d="m866.25 335.86h-108.05c-7.7344 0-14.062 6.3281-14.062 14.062s6.3281 14.062 14.062 14.062h108.05c7.7344 0 14.062-6.3281 14.062-14.062s-6.3281-14.062-14.062-14.062z"/>
  <path d="m684.14 363.98h8.9062c7.7344 0 14.062-6.3281 14.062-14.062s-6.3281-14.062-14.062-14.062h-8.9062c-7.7344 0-14.062 6.3281-14.062 14.062s6.0938 14.062 14.062 14.062z"/>
  <path d="m454.22 593.2c0 7.7344 6.3281 14.062 14.062 14.062h165.7c7.7344 0 14.062-6.3281 14.062-14.062s-6.3281-14.062-14.062-14.062h-165.7c-7.7344 0-14.062 6.3281-14.062 14.062z"/>
  <path d="m398.44 579.14c-7.7344 0-14.062 6.3281-14.062 14.062s6.3281 14.062 14.062 14.062h18.516c7.7344 0 14.062-6.3281 14.062-14.062s-6.3281-14.062-14.062-14.062z"/>
  <path d="m361.88 593.2c0-7.7344-6.3281-14.062-14.062-14.062h-14.062c-7.7344 0-14.062 6.3281-14.062 14.062s6.3281 14.062 14.062 14.062h14.062c7.7344 0 14.062-6.3281 14.062-14.062z"/>
 </g>
</svg>
