<?xml version="1.0" encoding="UTF-8"?>
<svg width="1200pt" height="1200pt" version="1.1" viewBox="0 0 1200 1200" xmlns="http://www.w3.org/2000/svg">
 <g fill="#e2793b">
  <path d="m292.97 890.62c-101.12 0-208.59-27.93-208.59-79.688v-421.88c0-5.1758 4.1992-9.375 9.375-9.375s9.375 4.1992 9.375 9.375c0 28.824 77.969 60.938 189.84 60.938s189.84-32.113 189.84-60.938c0-5.1758 4.1992-9.375 9.375-9.375s9.375 4.1992 9.375 9.375v421.88c0 51.758-107.47 79.688-208.59 79.688zm-189.84-466.96v387.27c0 28.824 77.969 60.938 189.84 60.938s189.84-32.113 189.84-60.938v-387.27c-35.16 29.484-114.27 45.082-189.84 45.082s-154.68-15.598-189.84-45.082z"/>
  <path d="m292.97 468.75c-101.12 0-208.59-27.93-208.59-79.688s107.47-79.688 208.59-79.688 208.59 27.93 208.59 79.688-107.47 79.688-208.59 79.688zm0-140.62c-111.88 0-189.84 32.113-189.84 60.938s77.969 60.938 189.84 60.938 189.84-32.113 189.84-60.938-77.969-60.938-189.84-60.938z"/>
  <path d="m292.97 609.38c-101.12 0-208.59-27.93-208.59-79.688 0-5.1758 4.1992-9.375 9.375-9.375s9.375 4.1992 9.375 9.375c0 28.824 77.969 60.938 189.84 60.938s189.84-32.113 189.84-60.938c0-5.1758 4.1992-9.375 9.375-9.375s9.375 4.1992 9.375 9.375c0 51.758-107.47 79.688-208.59 79.688z"/>
  <path d="m292.97 750c-101.12 0-208.59-27.93-208.59-79.688 0-5.1758 4.1992-9.375 9.375-9.375s9.375 4.1992 9.375 9.375c0 28.824 77.969 60.938 189.84 60.938s189.84-32.113 189.84-60.938c0-5.1758 4.1992-9.375 9.375-9.375s9.375 4.1992 9.375 9.375c0 51.758-107.47 79.688-208.59 79.688z"/>
  <path d="m1148.4 360.94h-375c-5.1758 0-9.375-4.1992-9.375-9.375v-187.5c0-5.1758 4.1992-9.375 9.375-9.375h375c5.1758 0 9.375 4.1992 9.375 9.375v187.5c0 5.1758-4.1992 9.375-9.375 9.375zm-365.62-18.75h356.25v-168.75h-356.25z"/>
  <path d="m1148.4 712.5h-375c-5.1758 0-9.375-4.1992-9.375-9.375v-187.5c0-5.1758 4.1992-9.375 9.375-9.375h375c5.1758 0 9.375 4.1992 9.375 9.375v187.5c0 5.1758-4.1992 9.375-9.375 9.375zm-365.62-18.75h356.25v-168.75h-356.25z"/>
  <path d="m1148.4 1064.1h-375c-5.1758 0-9.375-4.1992-9.375-9.375v-187.5c0-5.1758 4.1992-9.375 9.375-9.375h375c5.1758 0 9.375 4.1992 9.375 9.375v187.5c0 5.1758-4.1992 9.375-9.375 9.375zm-365.62-18.75h356.25v-168.75h-356.25z"/>
  <path d="m679.69 1017.2h-70.312c-5.1758 0-9.375-4.1992-9.375-9.375v-750c0-5.1758 4.1992-9.375 9.375-9.375h70.312c5.1758 0 9.375 4.1992 9.375 9.375s-4.1992 9.375-9.375 9.375h-60.938v731.25h60.938c5.1758 0 9.375 4.1992 9.375 9.375s-4.1992 9.375-9.375 9.375z"/>
  <path d="m773.44 618.75h-210.94c-5.1758 0-9.375-4.1992-9.375-9.375s4.1992-9.375 9.375-9.375h210.94c5.1758 0 9.375 4.1992 9.375 9.375s-4.1992 9.375-9.375 9.375z"/>
  <path d="m609.38 478.12h-46.875c-5.1758 0-9.375-4.1992-9.375-9.375s4.1992-9.375 9.375-9.375h46.875c5.1758 0 9.375 4.1992 9.375 9.375s-4.1992 9.375-9.375 9.375z"/>
  <path d="m609.38 759.38h-46.875c-5.1758 0-9.375-4.1992-9.375-9.375s4.1992-9.375 9.375-9.375h46.875c5.1758 0 9.375 4.1992 9.375 9.375s-4.1992 9.375-9.375 9.375z"/>
  <path d="m820.31 234.38h46.875v46.875h-46.875z"/>
  <path d="m890.62 234.38h46.875v46.875h-46.875z"/>
  <path d="m960.94 234.38h46.875v46.875h-46.875z"/>
  <path d="m820.31 585.94h46.875v46.875h-46.875z"/>
  <path d="m890.62 585.94h46.875v46.875h-46.875z"/>
  <path d="m960.94 585.94h46.875v46.875h-46.875z"/>
  <path d="m820.31 937.5h46.875v46.875h-46.875z"/>
  <path d="m890.62 937.5h46.875v46.875h-46.875z"/>
  <path d="m960.94 937.5h46.875v46.875h-46.875z"/>
 </g>
</svg>
