<?xml version="1.0" encoding="UTF-8"?>
<svg width="1200pt" height="1200pt" version="1.1" viewBox="0 0 1200 1200" xmlns="http://www.w3.org/2000/svg">
 <path d="m597.6 879.6c-48 0-86.398 39.602-86.398 87.602s38.398 87.602 86.398 87.602 86.398-39.602 86.398-87.602c0-48.004-38.398-87.602-86.398-87.602zm0 129.6c-22.801 0-42-19.199-42-42s19.199-42 42-42c22.801 0 42 19.199 42 42s-19.203 42-42 42zm-368.4-746.4-46.801 46.801c-4.8008 4.8008-10.801 7.1992-15.602 7.1992s-12-2.3984-15.602-7.1992c-8.3984-8.3984-8.3984-22.801 0-32.398l46.801-46.801-46.801-46.801c-8.3984-8.3984-8.3984-22.801 0-32.398 8.3984-8.3984 22.801-8.3984 32.398 0l46.801 46.801 46.801-46.801c8.3984-8.3984 22.801-8.3984 32.398 0 8.3984 8.3984 8.3984 22.801 0 32.398l-46.801 46.801 46.801 46.801c8.3984 8.3984 8.3984 22.801 0 32.398-4.8008 4.8008-10.801 7.1992-15.602 7.1992-4.8008 0-12-2.3984-15.602-7.1992zm272.4-4.8008c-8.3984-8.3984-8.3984-22.801 0-32.398 8.3984-8.3984 22.801-8.3984 32.398 0l34.801 34.801 109.2-109.2c8.3984-8.3984 22.801-8.3984 32.398 0 8.3984 8.3984 8.3984 22.801 0 32.398l-124.8 124.8c-4.8008 4.8008-10.801 7.1992-15.602 7.1992-4.8008 0-12-2.3984-15.602-7.1992zm73.199 552c0-12 10.801-22.801 22.801-22.801s22.801 9.6016 22.801 22.801c0 12-9.6016 22.801-22.801 22.801-12-1.1992-22.801-10.801-22.801-22.801zm0-182.4c0-12 10.801-22.801 22.801-22.801s22.801 9.6016 22.801 22.801c0 12-9.6016 22.801-22.801 22.801-12-0.003906-22.801-9.6016-22.801-22.801zm0 91.199c0-12 10.801-22.801 22.801-22.801s22.801 10.801 22.801 22.801-9.6016 22.801-22.801 22.801c-12 0-22.801-10.801-22.801-22.801zm418.8-334.8v153.6c0 12-9.6016 22.801-22.801 22.801h-740.4c-12 0-22.801-9.6016-22.801-22.801v-153.6c0-12 9.6016-22.801 22.801-22.801 13.199 0 22.801 9.6016 22.801 22.801v130.8h322.8l-0.003906-130.8c0-12 9.6016-22.801 22.801-22.801s22.801 9.6016 22.801 22.801v130.8h327.6l-0.003906-130.8c0-12 9.6016-22.801 22.801-22.801s21.602 9.6016 21.602 22.801zm55.199-106.8c8.3984 8.3984 8.3984 22.801 0 32.398-4.8008 4.8008-10.801 7.1992-15.602 7.1992s-12-2.3984-15.602-7.1992l-46.801-46.801-46.801 46.801c-4.8008 4.8008-10.801 7.1992-15.602 7.1992s-12-2.3984-15.602-7.1992c-8.3984-8.3984-8.3984-22.801 0-32.398l46.801-46.801-46.801-46.801c-8.3984-8.3984-8.3984-22.801 0-32.398 8.3984-8.3984 22.801-8.3984 32.398 0l46.801 46.801 46.801-46.801c8.3984-8.3984 22.801-8.3984 32.398 0 8.3984 8.3984 8.3984 22.801 0 32.398l-46.801 46.801z" fill="#e2793b"/>
</svg>
