<?xml version="1.0" encoding="UTF-8"?>
<svg width="1200pt" height="1200pt" version="1.1" viewBox="0 0 1200 1200" xmlns="http://www.w3.org/2000/svg">
 <g fill="#e2793b">
  <path d="m408.98 810.7-129.61 105.47-51.328-60c-4.9219-5.8594-13.828-6.5625-19.922-1.6406-5.8594 4.9219-6.5625 13.828-1.6406 19.922l60.234 70.547c4.9219 5.8594 13.594 6.5625 19.453 1.875l140.16-114.14c5.8594-4.9219 6.7969-13.828 1.875-19.922-4.6875-5.8594-13.359-6.7969-19.219-2.1094z"/>
  <path d="m1062.7 77.812h-303.75c-22.734-47.578-79.922-67.969-127.5-45-19.688 9.375-35.625 25.312-45 45h-303.98c-32.812 0-59.297 26.719-59.531 59.531v491.72l-137.81 75.469c-4.4531 2.5781-7.2656 7.2656-7.2656 12.422v140.62c0.23438 131.95 78.281 251.48 199.22 304.22l30.938 13.359c3.5156 1.6406 7.7344 1.6406 11.25 0l34.688-15c13.828-5.8594 26.953-12.422 39.844-20.156h668.91c32.812 0 59.297-26.719 59.531-59.531v-943.12c0-32.812-26.719-59.531-59.531-59.531zm-471.8 96.328c7.7344 0 14.062-6.3281 14.062-14.062v-41.016c0-37.266 30.234-67.5 67.734-67.5 37.266 0 67.5 30.234 67.5 67.5v40.781c0 7.7344 6.3281 14.062 14.062 14.062h135.7v80.859h-434.53v-80.625zm325.08 682.73c-32.812 0-59.297 26.719-59.531 59.531v71.016h-326.72c18.281-41.953 27.656-86.953 27.656-132.66v-137.58c0-5.1562-2.8125-10.078-7.5-12.422l-193.59-103.12v-362.11c0-4.6875 3.75-8.6719 8.6719-8.6719h62.109v37.969c0 7.7344 6.3281 14.062 14.062 14.062h462.66c7.7344 0 14.062-6.3281 14.062-14.062v-37.969h62.109c4.6875 0 8.6719 3.75 8.6719 8.6719v617.34zm53.438 28.125-84.844 84.844v-53.438c0-17.344 14.062-31.172 31.406-31.406zm-718.12-747.66c0-17.344 14.062-31.172 31.406-31.406h295.31c-0.70312 4.4531-0.9375 8.6719-0.9375 13.125v26.719h-135.7c-7.7344 0-14.062 6.3281-14.062 14.062v42.891h-62.109c-20.391 0-36.797 16.406-36.797 36.797v346.88l-7.2656-3.75c-4.2188-2.3438-9.1406-2.1094-13.359 0l-56.484 30.938zm91.875 997.27-29.297 12.656-25.312-11.016c-110.62-48.516-182.34-157.73-182.34-278.44v-132.42l137.81-75.469 70.781-38.672 21.094 11.25h0.23438l193.59 103.12v129.14c-0.46875 122.11-73.828 232.5-186.56 279.84zm750.94-53.672c0 17.344-14.062 31.172-31.406 31.406h-628.36c33.047-26.719 60.703-59.531 81.328-96.797h346.17c1.875 0 3.75-0.23438 5.3906-0.46875 5.1562 1.1719 10.312-0.46875 13.828-4.4531 3.5156-1.875 7.0312-4.4531 9.8438-7.2656l113.91-113.91c7.7344-7.7344 12.188-18.281 12.188-29.297v-620.62c0-20.391-16.406-36.797-36.797-36.797h-62.109v-42.656c0-7.7344-6.3281-14.062-14.062-14.062h-135.7v-26.953c0-4.4531-0.23438-8.9062-0.9375-13.125h295.31c17.344 0 31.172 14.062 31.406 31.406z"/>
  <path d="m886.88 426.33h17.109c7.7344 0 14.062-6.3281 14.062-14.062s-6.3281-14.062-14.062-14.062h-17.109c-7.7344 0-14.062 6.3281-14.062 14.062s6.3281 14.062 14.062 14.062z"/>
  <path d="m583.83 426.33h250.08c7.7344 0 14.062-6.3281 14.062-14.062s-6.3281-14.062-14.062-14.062h-250.08c-7.7344 0-14.062 6.3281-14.062 14.062s6.3281 14.062 14.062 14.062z"/>
  <path d="m441.33 426.33h88.359c7.7344 0 14.062-6.3281 14.062-14.062s-6.3281-14.062-14.062-14.062h-88.359c-7.7344 0-14.062 6.3281-14.062 14.062s6.0938 14.062 14.062 14.062z"/>
  <path d="m903.98 520.31h-47.812c-7.7344 0-14.062 6.3281-14.062 14.062s6.3281 14.062 14.062 14.062h47.812c7.7344 0 14.062-6.3281 14.062-14.062s-6.3281-14.062-14.062-14.062z"/>
  <path d="m739.22 520.31c-7.7344 0-14.062 6.3281-14.062 14.062s6.3281 14.062 14.062 14.062h65.156c7.7344 0 14.062-6.3281 14.062-14.062s-6.3281-14.062-14.062-14.062z"/>
  <path d="m707.81 534.38c0-7.7344-6.3281-14.062-14.062-14.062h-252.42c-7.7344 0-14.062 6.3281-14.062 14.062s6.3281 14.062 14.062 14.062h252.42c7.7344 0 14.062-6.0938 14.062-14.062z"/>
  <path d="m903.98 650.39h-264.38c-7.7344 0-14.062 6.3281-14.062 14.062s6.3281 14.062 14.062 14.062h264.14c7.7344 0 14.062-6.3281 14.062-14.062s-6.0938-14.062-13.828-14.062z"/>
  <path d="m602.11 664.45c0-7.7344-6.3281-14.062-14.062-14.062h-62.812c-7.7344 0-14.062 6.3281-14.062 14.062s6.3281 14.062 14.062 14.062h62.812c7.7344 0 14.062-6.3281 14.062-14.062z"/>
  <path d="m903.98 770.39h-170.39c-7.7344 0-14.062 6.3281-14.062 14.062s6.3281 14.062 14.062 14.062h170.39c7.7344 0 14.062-6.3281 14.062-14.062s-6.3281-14.062-14.062-14.062z"/>
  <path d="m681.8 770.39h-89.297c-7.7344 0-14.062 6.3281-14.062 14.062s6.3281 14.062 14.062 14.062h89.297c7.7344 0 14.062-6.3281 14.062-14.062s-6.0938-14.062-14.062-14.062z"/>
 </g>
</svg>
