<svg id="Group_6" data-name="Group 6" xmlns="http://www.w3.org/2000/svg" xmlns:xlink="http://www.w3.org/1999/xlink" width="254.392" height="50" viewBox="0 0 254.392 50">
  <defs>
    <clipPath id="clip-path">
      <rect id="Rectangle_1" data-name="Rectangle 1" width="254.392" height="50" fill="none"/>
    </clipPath>
  </defs>
  <g id="Group_5" data-name="Group 5" clip-path="url(#clip-path)">
    <path id="Path_1" data-name="Path 1" d="M167.038,62.024a13.825,13.825,0,0,1-5.284-.942,11.116,11.116,0,0,1-3.851-2.56,10.7,10.7,0,0,1-2.355-3.809,13.478,13.478,0,0,1-.8-4.65,16.687,16.687,0,0,1,1.148-6.1,16.236,16.236,0,0,1,3.256-5.223,15.663,15.663,0,0,1,5.1-3.626,15.928,15.928,0,0,1,6.636-1.351,14.214,14.214,0,0,1,5.325.921,10.623,10.623,0,0,1,3.811,2.52,10.41,10.41,0,0,1,2.273,3.748,13.773,13.773,0,0,1,.759,4.609,17.409,17.409,0,0,1-1.127,6.185,16.289,16.289,0,0,1-3.2,5.264,15.52,15.52,0,0,1-5.039,3.646,15.694,15.694,0,0,1-6.657,1.372m.444-5.284a7.367,7.367,0,0,0,3.788-.963,8.618,8.618,0,0,0,2.74-2.519,11.559,11.559,0,0,0,1.648-3.543,15.041,15.041,0,0,0,.555-4.076,9.64,9.64,0,0,0-.329-2.581,6.189,6.189,0,0,0-1.01-2.089,4.615,4.615,0,0,0-1.793-1.413,6.252,6.252,0,0,0-2.636-.512,7.592,7.592,0,0,0-3.831.942,8.717,8.717,0,0,0-2.759,2.478,11.415,11.415,0,0,0-1.689,3.482,13.965,13.965,0,0,0-.578,3.994,9.922,9.922,0,0,0,.35,2.683,5.994,5.994,0,0,0,1.091,2.172,5.059,5.059,0,0,0,1.855,1.433,6.14,6.14,0,0,0,2.6.512" transform="translate(-95.752 -20.889)" fill="#003255"/>
    <path id="Path_2" data-name="Path 2" d="M238.934,27.32h5.325l-1.474,7.7a42.143,42.143,0,0,1-1.106,4.342l.04.041a9.607,9.607,0,0,1,6.1-2.539c3.4,0,5.611,2.088,5.611,6.348,0,9.462-5.285,14.7-11.059,14.7a7.416,7.416,0,0,1-4.547-1.352l-.368.983h-4.383Zm.369,25.4a4.834,4.834,0,0,0,3.031,1.024c3.358,0,5.611-5,5.611-9.749,0-1.843-.738-2.745-1.966-2.745-1.433,0-3.317,1.393-5.161,3.769Z" transform="translate(-144.218 -16.904)" fill="#003255"/>
    <path id="Path_3" data-name="Path 3" d="M285.06,59.467c-1.146,5.9-4.013,7.905-9.051,7.905a17.657,17.657,0,0,1-3.6-.41l.819-4.014a15.673,15.673,0,0,0,2.99.287c1.76,0,2.99-1.065,3.522-3.768l4.179-21.5h5.324Zm5.857-27.976c-.409,2.253-1.146,2.908-3.6,2.908-1.884,0-2.622-.409-2.622-1.638a5.49,5.49,0,0,1,.164-1.352c.41-2.253,1.106-2.908,3.6-2.908,1.844,0,2.581.368,2.581,1.679a9.185,9.185,0,0,1-.124,1.311" transform="translate(-168.552 -17.636)" fill="#003255"/>
    <path id="Path_4" data-name="Path 4" d="M337.216,72.132a24.04,24.04,0,0,1-7.085.984c-5,0-7.66-1.6-7.66-6.718a20.36,20.36,0,0,1,.369-3.686c1.269-7.742,5.53-10.9,11.1-10.9,4.177,0,6.676,1.966,6.676,5.2,0,5.038-4.178,7.454-12.7,7.454a13.485,13.485,0,0,0-.2,1.8c0,1.966,1.066,2.7,3.318,2.7a22.361,22.361,0,0,0,6.063-.86ZM335.7,57.714c0-1.147-.736-1.8-2.334-1.8-2.417,0-3.973,1.475-4.793,5.079,4.751.041,7.127-.942,7.127-3.277" transform="translate(-199.531 -32.062)" fill="#003255"/>
    <path id="Path_5" data-name="Path 5" d="M388.147,72.644a21.521,21.521,0,0,1-5.407.738c-4.629,0-7.618-1.721-7.618-6.759a19.209,19.209,0,0,1,.368-3.686c1.393-7.7,5.571-10.69,10.937-10.69a16.68,16.68,0,0,1,4.628.614l-1.188,3.932a12.239,12.239,0,0,0-2.99-.409c-2.743,0-4.957,1.516-5.98,6.472a12.5,12.5,0,0,0-.368,3.072c0,2.417,1.188,3.318,3.523,3.318a16.581,16.581,0,0,0,3.973-.573Z" transform="translate(-232.109 -32.328)" fill="#003255"/>
    <path id="Path_6" data-name="Path 6" d="M423.719,42.883l1.106-5.693,5.447-.738-1.228,6.431h4.341l-.778,4.055h-4.342l-1.925,9.831a7.357,7.357,0,0,0-.124,1.27c0,1.024.492,1.393,1.434,1.393a8.914,8.914,0,0,0,2.335-.328l.124,3.932a20.027,20.027,0,0,1-4.383.533c-3.6,0-5.079-1.229-5.079-4.055a14.871,14.871,0,0,1,.246-2.089L422.9,46.938h-2.867l.779-4.055Z" transform="translate(-259.898 -22.555)" fill="#003255"/>
    <path id="Path_7" data-name="Path 7" d="M465.052,31.94h5.53l.286,15.2c.042,2.949-.122,5.98-.246,9.667h.082c1.229-3.6,2.212-6.636,3.441-9.667l6.1-15.2h7.742l.122,15.2c0,2.99-.082,5.98-.246,9.667h.082c1.311-3.687,2.335-6.759,3.523-9.667l6.185-15.2H503.1l-11.8,28.467H483.28l-.124-16.425c0-2.99.082-5.775.246-8.438h-.04c-.984,2.7-1.966,5.407-3.155,8.438l-6.471,16.425h-7.987Z" transform="translate(-287.754 -19.763)" fill="#aa111b"/>
    <path id="Path_8" data-name="Path 8" d="M561.175,37.964H566.5L562.567,58.28h-5.325Zm7-6.472c-.451,2.253-1.148,2.908-3.646,2.908-1.842,0-2.58-.409-2.58-1.638a8.263,8.263,0,0,1,.122-1.352c.41-2.253,1.148-2.908,3.605-2.908,1.884,0,2.621.368,2.621,1.679a9.257,9.257,0,0,1-.122,1.311" transform="translate(-344.797 -17.636)" fill="#aa111b"/>
    <path id="Path_9" data-name="Path 9" d="M590.078,52.723h4.382l-.122,2.662a10.934,10.934,0,0,1,7.29-3.03c3.523,0,5.121,1.761,5.121,4.956a13.777,13.777,0,0,1-.246,2.417l-2.582,13.312H598.6l2.458-12.779a8.837,8.837,0,0,0,.206-1.721c0-1.229-.532-1.8-1.8-1.8-1.557,0-3.727,1.434-5.612,3.891L591.47,73.038h-5.325Z" transform="translate(-362.681 -32.394)" fill="#aa111b"/>
    <path id="Path_10" data-name="Path 10" d="M649.419,37.048a3.979,3.979,0,0,1-1.631-.338,4.285,4.285,0,0,1-2.239-2.273,4.309,4.309,0,0,1,0-3.322,4.285,4.285,0,0,1,2.239-2.273,3.979,3.979,0,0,1,1.631-.338,4.023,4.023,0,0,1,1.638.338,4.219,4.219,0,0,1,1.335.917,4.343,4.343,0,0,1,.9,1.357,4.307,4.307,0,0,1,0,3.322,4.343,4.343,0,0,1-.9,1.357,4.226,4.226,0,0,1-1.335.917,4.023,4.023,0,0,1-1.638.338m0-.484a3.882,3.882,0,0,0,1.461-.27,3.389,3.389,0,0,0,1.158-.764,3.452,3.452,0,0,0,.756-1.19,4.675,4.675,0,0,0,0-3.124,3.448,3.448,0,0,0-.756-1.2,3.393,3.393,0,0,0-1.158-.763,3.9,3.9,0,0,0-1.461-.27,3.936,3.936,0,0,0-1.466.27,3.352,3.352,0,0,0-1.164.763,3.492,3.492,0,0,0-.764,1.2,4.551,4.551,0,0,0,0,3.124,3.5,3.5,0,0,0,.764,1.19,3.349,3.349,0,0,0,1.164.764,3.921,3.921,0,0,0,1.466.27" transform="translate(-399.231 -17.636)" fill="#161313"/>
    <path id="Path_11" data-name="Path 11" d="M651.351,38.418V34.27h1.763a3.023,3.023,0,0,1,.966.112.952.952,0,0,1,.482.4,1.193,1.193,0,0,1,.181.653,1.109,1.109,0,0,1-.274.771,1.319,1.319,0,0,1-.821.384,1.945,1.945,0,0,1,.448.348,4.718,4.718,0,0,1,.477.673l.506.809h-1l-.606-.9a5.842,5.842,0,0,0-.442-.61.644.644,0,0,0-.252-.173,1.377,1.377,0,0,0-.422-.047h-.17v1.732Zm.838-2.394h.62a3.2,3.2,0,0,0,.753-.051.451.451,0,0,0,.235-.176.54.54,0,0,0,.084-.311.5.5,0,0,0-.112-.338.514.514,0,0,0-.315-.163q-.1-.014-.611-.014h-.654Z" transform="translate(-403.028 -21.205)" fill="#1a1818"/>
    <path id="Path_12" data-name="Path 12" d="M78.268,8.692l-14.6,14.872-7.015,7.148c-.088.084-.175.172-.263.267a8.232,8.232,0,0,0-2.249,5.658c0,.225.008.446.027.663a7.979,7.979,0,0,1-3.355-6.645,7.786,7.786,0,0,1,2.23-4.971l2.421-2.467,18.452-18.8a3.05,3.05,0,1,1,4.354,4.274" transform="translate(-31.436 -2.169)" fill="#aa111b"/>
    <path id="Path_13" data-name="Path 13" d="M101.525,85.619l-7.71,7.561c-.088.084-.175.172-.263.267A8.232,8.232,0,0,0,91.3,99.1c0,.225.008.446.027.663a7.98,7.98,0,0,1-3.355-6.645,7.788,7.788,0,0,1,2.23-4.971l2.421-2.467,4.545-4.339a3.05,3.05,0,1,1,4.354,4.274" transform="translate(-54.431 -49.768)" fill="#aa111b"/>
    <path id="Path_14" data-name="Path 14" d="M89.939,45.967l-8.42,8.21L74.5,61.325c-.088.084-.175.172-.263.267a8.232,8.232,0,0,0-2.249,5.658c0,.225.008.446.027.663a7.979,7.979,0,0,1-3.355-6.645,7.787,7.787,0,0,1,2.23-4.971l2.421-2.467,12.27-12.136a3.05,3.05,0,1,1,4.354,4.274" transform="translate(-42.482 -25.233)" fill="#aa111b"/>
    <path id="Path_15" data-name="Path 15" d="M24.178,7.625a16.524,16.524,0,0,1,5.7,1.006l5.269-6A24.184,24.184,0,1,0,24.178,48.364,24.543,24.543,0,0,0,28.372,48l-5.955-7.354A16.559,16.559,0,0,1,24.178,7.625" fill="#aa111b"/>
  </g>
</svg>
